PathFileType	4	(X/Y/Z)	Walk9.trc
DataRate	CameraRate	NumFrames	NumMarkers	Units	OrigDataRate	OrigDataStartFrame	OrigNumFrames
200.000000	200.000000	4	61	mm	200.000000	330	503
Frame#	Times		LFHD		RFHD		CLAV		LASI		RASI		RACR1		RUA1		RFA1		RWRR		RCAR		LACR1		LUA1		LWRU		RTH3		RTB4		LTH1		LTH3		LTH4		LTB1		LTB2		LTB4		LLFC		RTB1		LCAR		LFA1		RTB3		STRN		RMFC		RMT5		RToe		RLFC		LTH2		RTH2		RMT1		LBHD		LTB3		RTB2		LWRR		LElbow		RMMAL		RTH4		RWRU		RLMAL		RCAL		LPSI		RElbow		RTH1		RBHD		T10		RPSI		RBack		LMFC		C7		RElbowM		LElbowM		LLMAL		LCAL		LMT5		LToe		LMT1		LMMAL
			X1	Y1	Z1	X2	Y2	Z2	X3	Y3	Z3	X4	Y4	Z4	X5	Y5	Z5	X6	Y6	Z6	X7	Y7	Z7	X8	Y8	Z8	X9	Y9	Z9	X10	Y10	Z10	X11	Y11	Z11	X12	Y12	Z12	X13	Y13	Z13	X14	Y14	Z14	X15	Y15	Z15	X16	Y16	Z16	X17	Y17	Z17	X18	Y18	Z18	X19	Y19	Z19	X20	Y20	Z20	X21	Y21	Z21	X22	Y22	Z22	X23	Y23	Z23	X24	Y24	Z24	X25	Y25	Z25	X26	Y26	Z26	X27	Y27	Z27	X28	Y28	Z28	X29	Y29	Z29	X30	Y30	Z30	X31	Y31	Z31	X32	Y32	Z32	X33	Y33	Z33	X34	Y34	Z34	X35	Y35	Z35	X36	Y36	Z36	X37	Y37	Z37	X38	Y38	Z38	X39	Y39	Z39	X40	Y40	Z40	X41	Y41	Z41	X42	Y42	Z42	X43	Y43	Z43	X44	Y44	Z44	X45	Y45	Z45	X46	Y46	Z46	X47	Y47	Z47	X48	Y48	Z48	X49	Y49	Z49	X50	Y50	Z50	X51	Y51	Z51	X52	Y52	Z52	X53	Y53	Z53	X54	Y54	Z54	X55	Y55	Z55	X56	Y56	Z56	X57	Y57	Z57	X58	Y58	Z58	X59	Y59	Z59	X60	Y60	Z60	X61	Y61	Z61

330	1.65	210.32	1571.2	-75.566	205.01	1574.9	23.852	172.47	1294.7	-19.278	146.7	880.8	-123.75	169.79	904.09	122.58	98.114	1329.6	147.59	69.592	1165.9	208.6	75.523	881.81	284.1	137.41	772.87	261.46	127.31	705.54	309.07	99.803	1338.5	-172.61	105.19	1170.3	-242.7	341.9	881.18	-276.02	209.35	586.85	169.14	308.15	263.96	92.79	57.803	724.74	-179.31	14.253	560.82	-154.21	34.998	642.14	-168.23	-69.546	320.48	-78.7	-148.41	276.52	-133.68	-135.55	264.79	-75.467	-38.117	428.43	-139.52	301.24	350.5	101.03	375.11	820.05	-312.63	228.95	925.92	-303.41	313.67	179.05	81.407	197	1160.6	-12.093	232.35	438.67	10.051	379.04	27.621	104.55	462.06	47.878	54.749	259.83	451.32	134.23	89.722	631.96	-149.69	230.62	690.27	163.29	412.78	46.006	24.119	70.744	1502	-102.61	-195.67	206.34	-71.236	263.11	256.84	133.12	296.41	830.78	-290.82	117.94	1018.1	-285.79	285.43	85.611	14.462	183.27	664.99	189.84	75.904	761.04	291.57	273.12	61.867	93.269	225.91	34.177	47.336	-20.16	943.5	-29.174	32.983	1005.4	250.61	157.42	745.49	212.57	65.48	1513.4	39.872	-11.647	1185.4	-8.1417	-8.2422	944.19	70.547	-16.637	1272.1	52.86	-52.914	421.89	-8.1411	62.089	1397.2	-20.583	11.838	996.51	173.97	102.69	986.51	-218.92	-310.86	160.31	-114.3	-364.19	182.99	-75.052	-278.95	42.062	-99.588	-211.52	20.74	-40.65	-255.59	41.361	-19.017	-289.73	166.25	-34.848
331	1.655	217.68	1571.7	-75.121	212.49	1575.5	24.301	180.68	1295.1	-18.618	154.86	880.53	-122.8	177.5	905	123.14	106.5	1329.9	148.29	78.541	1166	209.26	85.031	881.95	284.56	146.92	773.02	261.61	137.07	705.7	309.26	107.95	1338.6	-171.99	111.7	1170.1	-241.71	346.09	878.55	-275.9	216.3	587.37	169.69	312.67	263.3	92.32	67.627	723.71	-178.47	26.412	559.14	-153.86	45.973	640.79	-167.56	-57.96	319.24	-78.731	-137.58	277.07	-134.05	-125.22	265.06	-75.805	-24.483	426.43	-139.52	307.09	349.96	100.52	378.31	817.02	-312.7	233.47	924.42	-302.53	316.79	178.29	80.957	205.27	1160.9	-11.191	238.57	439.38	10.532	379.8	26.423	104.54	463.15	44.611	53.729	267.22	451.79	134.3	100.75	631.33	-148.92	237.96	690.72	164.75	413.5	43.692	23.428	78.309	1502	-101.91	-186.7	208.02	-71.782	268.18	256.89	133.43	299.97	828.56	-290.13	123.46	1017.8	-284.38	286.48	85.294	14.405	190.26	665.49	190.49	85.576	761.16	292.05	274.46	61.737	93.37	226.36	34.796	47.744	-12.262	943.48	-29.492	42.237	1005.5	251.31	164.32	745.93	213.41	73.196	1513.6	40.563	-3.559	1185.8	-7.6325	-0.5376	944.69	70.33	-8.3926	1272.5	53.676	-39.264	419.63	-8.1317	70.265	1397.5	-19.845	20.874	996.66	174.62	108.54	986.48	-217.32	-302.66	164.86	-115.45	-355.09	189.72	-76.637	-275.09	45.256	-100.35	-210.05	20.376	-40.985	-252.38	43.681	-19.874	-281.85	170.17	-35.967
332	1.66	225.05	1572.3	-74.656	219.97	1576.2	24.772	188.87	1295.4	-17.99	162.93	880.32	-121.86	185.14	905.97	123.71	114.9	1330.2	148.95	87.517	1166.2	209.9	94.623	882.14	284.99	156.54	773.25	261.73	146.98	705.93	309.42	116.11	1338.8	-171.38	118.25	1170	-240.7	350.07	875.82	-275.75	223.02	587.84	170.31	316.94	262.62	91.957	77.507	722.7	-177.66	38.757	557.47	-153.5	57.064	639.44	-166.91	-46.049	318.08	-78.647	-126.34	277.65	-134.31	-114.51	265.43	-76.018	-10.549	424.43	-139.46	312.68	349.37	100.15	381.21	813.89	-312.74	237.83	922.92	-301.62	319.7	177.53	80.594	213.48	1161.3	-10.334	244.61	440.05	11.063	380.46	25.436	104.67	464.08	41.706	52.904	274.42	452.21	134.41	111.9	630.76	-148.14	245.13	691.09	166.33	414.11	41.675	22.884	85.896	1502.1	-101.21	-177.31	209.81	-72.201	272.97	256.88	133.79	303.29	826.29	-289.38	128.9	1017.5	-282.92	287.41	85.04	14.391	197.06	665.95	191.21	95.393	761.34	292.52	275.63	61.627	93.5	226.76	35.353	48.141	-4.4494	943.48	-29.839	51.524	1005.7	252.01	171.03	746.33	214.28	80.921	1513.8	41.252	4.4673	1186.2	-7.1463	7.0726	945.19	70.068	-0.16568	1272.8	54.475	-25.35	417.43	-8.0238	78.446	1397.9	-19.137	29.938	996.85	175.27	114.32	986.53	-215.67	-293.95	169.48	-116.47	-345.48	196.45	-78.089	-270.64	48.72	-101.14	-208.06	20.067	-41.459	-248.52	46.222	-20.818	-273.49	174.2	-36.944
333	1.665	232.42	1572.8	-74.171	227.45	1576.8	25.262	197.04	1295.8	-17.399	170.9	880.17	-120.96	192.72	906.99	124.28	123.3	1330.5	149.59	96.511	1166.4	210.51	104.29	882.39	285.42	166.27	773.56	261.82	157.05	706.24	309.55	124.25	1339.1	-170.78	124.83	1170	-239.7	353.83	873.01	-275.57	229.5	588.24	170.99	320.97	261.93	91.707	87.432	721.71	-176.88	51.258	555.84	-153.13	68.252	638.12	-166.26	-33.831	317.03	-78.447	-114.7	278.24	-134.47	-103.45	265.91	-76.101	3.6458	422.45	-139.34	318.01	348.74	99.916	383.82	810.66	-312.73	242.03	921.41	-300.66	322.39	176.78	80.316	221.62	1161.6	-9.5327	250.49	440.65	11.636	381.01	24.642	104.88	464.87	39.155	52.257	281.39	452.55	134.58	123.14	630.27	-147.37	252.13	691.38	168	414.61	39.943	22.468	93.506	1502.1	-100.53	-167.51	211.68	-72.485	277.45	256.83	134.17	306.36	823.99	-288.56	134.27	1017.3	-281.44	288.23	84.844	14.41	203.66	666.36	191.97	105.35	761.56	292.97	276.64	61.533	93.652	227.09	35.843	48.519	3.2829	943.5	-30.203	60.838	1005.9	252.69	177.57	746.7	215.17	88.653	1513.9	41.936	12.432	1186.7	-6.68	14.596	945.68	69.774	8.039	1273.3	55.256	-11.208	415.34	-7.815	86.626	1398.3	-18.458	39.024	997.09	175.9	120.04	986.67	-213.97	-284.76	174.13	-117.37	-335.39	203.11	-79.38	-265.52	52.422	-101.96	-205.44	19.848	-42.086	-243.92	48.958	-21.836	-264.65	178.32	-37.756
